<?xml version="1.0" standalone="no"?>
<!DOCTYPE svg PUBLIC "-//W3C//DTD SVG 20010904//EN"
 "http://www.w3.org/TR/2001/REC-SVG-20010904/DTD/svg10.dtd">
<svg version="1.0" xmlns="http://www.w3.org/2000/svg"
 width="225.000000pt" height="225.000000pt" viewBox="0 0 225.000000 225.000000"
 preserveAspectRatio="xMidYMid meet">

<g transform="translate(0.000000,225.000000) scale(0.100000,-0.100000)"
fill="#000000" stroke="none">
<path d="M902 2189 c-219 -46 -404 -150 -563 -316 -189 -198 -285 -425 -296
-700 -8 -203 25 -370 108 -535 204 -409 649 -652 1094 -598 446 54 805 356
929 781 179 619 -220 1261 -854 1375 -111 20 -306 17 -418 -7z m-378 -941 l27
-63 27 63 c41 99 52 90 139 -118 94 -224 90 -210 60 -210 -22 0 -30 14 -87
155 -35 86 -66 152 -70 148 -4 -4 -33 -74 -66 -155 -51 -129 -62 -148 -81
-148 -13 0 -23 4 -23 9 0 6 17 50 37 100 35 86 36 92 23 131 -28 83 -31 81
-97 -83 -56 -140 -63 -152 -88 -155 -20 -3 -26 0 -23 10 3 7 34 81 68 163 34
83 68 165 76 183 21 52 46 42 78 -30z m597 -126 c44 -101 79 -187 79 -192 0
-6 -71 -10 -175 -10 -96 0 -175 2 -175 4 0 6 147 342 161 368 6 10 15 18 21
16 6 -2 46 -86 89 -186z m359 173 c37 -19 60 -62 60 -112 0 -44 -20 -77 -60
-102 l-28 -17 44 -72 44 -72 -30 0 c-25 0 -34 9 -71 70 l-41 70 -49 0 -49 0 0
-70 c0 -68 -1 -70 -25 -70 l-26 0 3 93 3 92 97 5 c113 6 138 20 138 80 0 61
-24 74 -141 78 -90 4 -99 6 -99 23 0 17 8 19 100 19 71 0 110 -5 130 -15z
m211 -105 c26 -63 55 -133 64 -155 l16 -40 63 155 c58 140 66 155 90 158 14 2
26 2 26 0 0 -2 -36 -88 -79 -193 -61 -148 -83 -191 -98 -193 -17 -3 -30 21
-86 155 -36 87 -73 175 -82 196 l-16 38 28 -3 c24 -3 32 -14 74 -118z"/>
<path d="M973 1093 l-50 -118 100 -3 c55 -1 102 -1 105 2 6 6 -90 236 -99 236
-3 0 -28 -53 -56 -117z"/>
</g>
</svg>
